<svg width="200" height="200" viewBox="0 0 200 200" fill="none" xmlns="http://www.w3.org/2000/svg">
<path d="M34 148H190V194H166V172H34V194H10V90H34V148ZM62 135C66.4183 135 70 138.582 70 143H36C36 138.582 39.5817 135 44 135H62ZM166 105C179.255 105 190 115.745 190 129V143H86V142.867C78.6613 141.889 73 135.606 73 128C73 120.166 79.0062 113.735 86.665 113.06C88.2957 108.368 92.7533 105 98 105H166ZM59 105C67.2843 105 74 111.716 74 120C74 128.284 67.2843 135 59 135C50.7157 135 44 128.284 44 120C44 111.716 50.7157 105 59 105ZM84.5498 84.5752L75.8252 97.125V97.1748H84.5498V100H71.7246V97.1748L80.4746 84.625V84.5752H71.7246V81.75H84.5498V84.5752ZM109.624 71.2559L98.4561 87.3203V87.3838H109.624V91H93.208V87.3838L104.408 71.3203V71.2559H93.208V67.6396H109.624V71.2559ZM139.28 54.3203L125.32 74.4004V74.4805H139.28V79H118.76V74.4805L132.76 54.4004V54.3203H118.76V49.7998H139.28V54.3203Z" fill="#0080FF"/>
</svg>
